<svg xmlns="http://www.w3.org/2000/svg" width="1144.808" height="133.629"><g fill="#fff"><path d="M108.92 27.247C94.127 12.455 73.722 3.275 51.172 3.175h-.744c-10.25.074-19.777 3.183-27.73 8.473C9.114 20.685.127 36.088.002 53.6v.744c.095 21.394 8.365 40.857 21.845 55.43.002 0 .002 0 .002.002 2.78 3.003 7.47 3.185 10.473.407 2.197-2.03 2.885-5.082 2.013-7.75l-.1-.282c-.02-.054-.04-.11-.063-.165 0 0 0 .002.01.003-1.802-5.208-2.782-10.8-2.782-16.623 0-1.05.032-2.093.095-3.127 0-.037 0-.073.01-.11 0-.08.01-.16.017-.24.747-9.81 8.688-17.396 18.307-17.9.75-.042 1.51-.038 2.28.01 3.53.227 6.778 1.383 9.522 3.213v.005c1.568 1.067 3.362 1.74 5.222 1.98.105.015.21.027.316.038 11.695 1.345 23.767-1.367 33.938-8.137 2.693-1.79 5.253-3.868 7.637-6.23l.18-.177.175-.18c2.463-2.525 4.1-5.555 4.91-8.752 1.628-6.412-.067-13.493-5.085-18.51zM94.278 104.678c14.793 14.792 35.198 23.972 57.748 24.072h.744c10.25-.074 19.777-3.183 27.73-8.473 13.585-9.037 22.57-24.44 22.697-41.952v-.372-.372c-.094-21.393-8.364-40.856-21.844-55.428l-.002-.003c-2.78-3.004-7.468-3.186-10.472-.408-2.197 2.03-2.885 5.082-2.013 7.75l.1.282c.02.055.04.11.063.166 0 0 0-.002-.01-.003 1.802 5.208 2.782 10.8 2.782 16.623 0 1.05-.03 2.093-.094 3.127 0 .037 0 .073-.01.11-.01.08-.01.16-.017.24-.748 9.81-8.69 17.396-18.308 17.9-.75.042-1.51.038-2.28-.01-3.53-.227-6.778-1.383-9.522-3.213v-.004c-1.57-1.067-3.363-1.74-5.223-1.98-.105-.015-.21-.027-.316-.038-11.694-1.345-23.766 1.367-33.937 8.137-2.693 1.79-5.253 3.867-7.637 6.23l-.18.176-.175.18c-2.462 2.524-4.1 5.554-4.91 8.75-1.628 6.413.067 13.494 5.085 18.512z"/><g><path d="M290.065 105.71c-10.038 0-18.82-4.547-24.938-12.86v34.035c0 3.607-3.136 6.744-7.058 6.744-3.765 0-6.9-3.14-6.9-6.745v-93.01c0-3.606 3.135-6.743 7.214-6.743 3.607 0 6.743 3.138 6.743 6.744v5.02c5.49-7.528 14.587-12.705 24.938-12.705 19.763 0 33.722 14.903 33.722 39.684 0 24.624-13.96 39.837-33.722 39.837zm-3.922-67.128c-8.47 0-17.252 5.02-21.017 11.138v32.31c3.765 6.117 12.548 11.29 21.017 11.29 14.274 0 22.9-11.606 22.9-27.446 0-15.84-8.626-27.292-22.9-27.292zM376.167 105.71c-23.526 0-38.113-18.036-38.113-39.836 0-21.8 14.587-39.683 38.113-39.683 23.684 0 38.27 17.883 38.27 39.684 0 21.8-14.586 39.837-38.27 39.837zm0-67.128c-15.056 0-23.683 12.862-23.683 27.292 0 14.587 8.626 27.447 23.683 27.447 15.215 0 23.684-12.86 23.684-27.446 0-14.43-8.468-27.292-23.683-27.292zM486.737 104.77c-3.764 0-6.9-3.135-6.9-6.902v-42.66c0-12.548-6.43-16.626-16.156-16.626-8.94 0-16.937 5.334-21.016 11.138v48.15c0 3.766-3.136 6.9-7.058 6.9-3.764 0-6.9-3.134-6.9-6.9V33.876c0-3.607 3.136-6.744 7.215-6.744 3.608 0 6.744 3.138 6.744 6.744v4.862c5.177-6.116 15.215-12.55 26.82-12.55 16 0 24.31 8.315 24.31 24.313V97.87c0 3.765-3.136 6.9-7.057 6.9zM523.903 9.096c0 4.862-3.92 8.94-8.94 8.94-4.862 0-8.94-4.078-8.94-8.94 0-5.017 4.077-9.096 8.94-9.096 5.02 0 8.94 4.08 8.94 9.096zm-8.94 95.674c-3.763 0-6.9-3.135-6.9-6.902V33.876c0-3.607 3.137-6.744 7.216-6.744 3.606 0 6.742 3.138 6.742 6.744v63.992c0 3.767-3.137 6.902-7.058 6.902zM607.654 36.545l-25.41 61.638c-1.724 3.92-5.645 6.587-10.037 6.587h-.313c-4.235 0-8-2.666-9.567-6.587l-25.565-61.638c-.315-.786-.47-1.727-.47-2.51 0-3.45 2.822-6.903 7.057-6.903 2.822 0 5.332 1.57 6.43 4.393l22.427 56.15 22.273-56.15c1.097-2.666 3.764-4.393 6.43-4.393 4.235 0 7.215 3.295 7.215 6.902 0 .784-.156 1.725-.47 2.51zM681.835 70.422h-52.698c1.097 13.02 10.51 23.997 25.878 23.997 6.43 0 13.333-2.198 18.822-6.274.94-.472 2.04-.786 3.138-.786 2.51 0 5.646 2.197 5.646 5.65 0 8.468-19.448 12.702-29.016 12.702-22.584 0-39.054-15.997-39.054-39.837 0-21.958 15.84-39.683 37.8-39.683 18.35 0 30.897 11.45 35.29 28.39.627 2.51 1.41 5.803 1.41 8.784 0 3.763-3.294 7.056-7.215 7.056zm-29.643-32.936c-15.056 0-22.428 12.548-23.055 23.056h46.426c-.315-10.196-7.216-23.056-23.37-23.056zM736.1 40.62c-7.215.63-14.274 3.765-18.822 10.51v46.738c0 3.767-3.138 6.902-7.058 6.902h-.157c-3.764-.157-6.744-3.135-6.744-6.902V33.876c0-3.607 3.137-6.744 7.214-6.744 3.607 0 6.744 3.138 6.744 6.744v5.96c4.235-5.802 11.136-12.86 19.605-12.86 3.607 0 6.274 2.667 6.274 6.274 0 4.08-3.137 7.06-7.057 7.37zM782.522 105.71c-10.35 0-21.8-2.98-28.702-9.878-1.097-.94-1.725-2.197-1.725-3.764 0-3.295 2.823-5.803 6.117-5.803 1.41 0 2.51.312 3.608 1.096 5.646 4.08 13.488 7.217 21.33 7.217 10.822 0 16.47-4.862 16.47-11.764 0-16.78-46.27-5.803-46.27-34.35 0-11.918 10.35-22.272 28.86-22.272 10.82 0 20.388 3.296 26.35 9.1.94.94 1.41 2.196 1.41 3.45 0 3.137-2.667 5.49-5.49 5.49-1.254 0-2.353-.315-3.294-1.098-4.862-3.452-11.605-5.803-18.82-5.803-9.567 0-15.528 4.547-15.528 10.665 0 15.214 46.426 4.705 46.426 34.506 0 12.86-10.666 23.21-30.742 23.21zM892.777 70.422h-52.7c1.098 13.02 10.508 23.997 25.88 23.997 6.43 0 13.33-2.198 18.82-6.274.942-.472 2.04-.786 3.137-.786 2.51 0 5.646 2.197 5.646 5.65 0 8.468-19.448 12.702-29.016 12.702-22.586 0-39.054-15.997-39.054-39.837 0-21.958 15.84-39.683 37.8-39.683 18.35 0 30.897 11.45 35.29 28.39.625 2.51 1.41 5.803 1.41 8.784 0 3.763-3.292 7.056-7.213 7.056zm-29.643-32.936c-15.058 0-22.43 12.548-23.056 23.056h46.426c-.314-10.196-7.216-23.056-23.37-23.056zM918.808 105.4c-4.705 0-8.626-3.922-8.626-8.627s3.92-8.626 8.626-8.626c4.705 0 8.626 3.92 8.626 8.626 0 4.705-3.92 8.626-8.626 8.626zM998.64 104.77c-3.136 0-5.802-2.666-5.802-5.803v-44.7c0-13.332-6.744-17.567-16.94-17.567-9.254 0-18.037 5.65-22.428 11.764v50.503c0 3.138-2.666 5.803-5.96 5.803-3.136 0-5.802-2.666-5.802-5.803V32.78c0-2.98 2.666-5.648 6.117-5.648 2.98 0 5.646 2.668 5.646 5.65v6.272c5.334-6.273 15.685-12.862 26.98-12.862 15.84 0 24.152 8 24.152 24.47v48.306c0 3.136-2.668 5.802-5.96 5.802zM1085.84 69.795h-54.738c.94 14.273 10.98 26.19 27.29 26.19 7.216 0 14.43-2.35 20.39-7.055.785-.472 1.726-.784 2.667-.784 2.037 0 4.704 1.882 4.704 4.862 0 8.155-19.605 12.703-28.86 12.703-22.428 0-38.583-16.154-38.583-39.836 0-21.958 15.685-39.683 37.33-39.683 18.82 0 31.21 11.922 35.132 29.332.47 2.35 1.098 5.174 1.098 7.843 0 3.45-2.822 6.43-6.43 6.43zm-29.957-33.88c-16.155 0-24.153 13.647-24.78 25.254h49.718c-.156-11.293-7.684-25.254-24.937-25.254zM1130.848 105.71c-11.135 0-16.782-6.43-16.782-17.72V38.426h-8.47c-2.822 0-5.017-2.197-5.017-5.334 0-2.823 2.194-5.02 5.017-5.02h8.47V12.076c0-2.98 2.666-5.646 6.117-5.646 2.98 0 5.646 2.666 5.646 5.646v15.997h11.292c2.823 0 5.02 2.197 5.02 5.334 0 2.823-2.197 5.02-5.02 5.02h-11.292v47.05c0 5.65 2.51 9.726 7.686 9.726 2.04 0 4.392-1.098 6.274-1.098 2.666 0 5.018 2.197 5.018 4.862 0 5.02-7.216 6.744-13.96 6.744z"/></g></g></svg>