<?xml version="1.0" encoding="UTF-8" standalone="no"?>
<!-- Created with Inkscape (http://www.inkscape.org/) -->

<svg
   xmlns:dc="http://purl.org/dc/elements/1.1/"
   xmlns:cc="http://creativecommons.org/ns#"
   xmlns:rdf="http://www.w3.org/1999/02/22-rdf-syntax-ns#"
   xmlns:svg="http://www.w3.org/2000/svg"
   xmlns="http://www.w3.org/2000/svg"
   xmlns:sodipodi="http://sodipodi.sourceforge.net/DTD/sodipodi-0.dtd"
   xmlns:inkscape="http://www.inkscape.org/namespaces/inkscape"
   width="1144.808"
   height="133.629"
   id="svg3652"
   version="1.1"
   inkscape:version="0.48.5 r10040"
   sodipodi:docname="poniverse.svg">
  <defs
     id="defs3654" />
  <sodipodi:namedview
     id="base"
     pagecolor="#ffffff"
     bordercolor="#666666"
     borderopacity="1.0"
     inkscape:pageopacity="0.0"
     inkscape:pageshadow="2"
     inkscape:zoom="0.35"
     inkscape:cx="438.83254"
     inkscape:cy="-130.32835"
     inkscape:document-units="px"
     inkscape:current-layer="layer1"
     showgrid="false"
     fit-margin-top="0"
     fit-margin-left="0"
     fit-margin-right="0"
     fit-margin-bottom="0"
     inkscape:window-width="1088"
     inkscape:window-height="704"
     inkscape:window-x="165"
     inkscape:window-y="107"
     inkscape:window-maximized="0" />
  <metadata
     id="metadata3657">
    <rdf:RDF>
      <cc:Work
         rdf:about="">
        <dc:format>image/svg+xml</dc:format>
        <dc:type
           rdf:resource="http://purl.org/dc/dcmitype/StillImage" />
        <dc:title></dc:title>
      </cc:Work>
    </rdf:RDF>
  </metadata>
  <g
     inkscape:label="Layer 1"
     inkscape:groupmode="layer"
     id="layer1"
     transform="translate(520.9754,-268.40483)">
    <g
       transform="translate(-1696.3244,-509.57317)"
       id="Trademarkf_x2C__Poniverse.net_-_Cyan"
       style="fill:#ffffff">
      <g
         id="Logo_5_"
         style="fill:#ffffff">
        <g
           id="FInal_Logo_5_"
           style="fill:#ffffff">
          <path
             style="fill:#ffffff"
             inkscape:connector-curvature="0"
             id="L_Arm_8_"
             d="m 1284.269,805.225 c -14.793,-14.792 -35.198,-23.972 -57.748,-24.072 -0.124,-10e-4 -0.248,-10e-4 -0.372,-10e-4 -0.124,0 -0.248,0 -0.372,10e-4 -10.249,0.074 -19.777,3.183 -27.729,8.473 -13.586,9.037 -22.573,24.441 -22.698,41.952 -10e-4,0.124 -10e-4,0.248 -10e-4,0.372 0,0.124 0,0.248 10e-4,0.372 0.094,21.394 8.364,40.857 21.844,55.429 l 10e-4,10e-4 c 10e-4,0.001 10e-4,0.001 10e-4,0.002 2.78,3.003 7.469,3.185 10.473,0.407 2.197,-2.031 2.885,-5.082 2.013,-7.75 -0.034,-0.094 -0.066,-0.188 -0.099,-0.282 -0.02,-0.055 -0.042,-0.111 -0.064,-0.166 0,0.001 0,0.002 0.01,0.003 -1.802,-5.208 -2.782,-10.801 -2.782,-16.623 0,-1.051 0.032,-2.093 0.095,-3.127 0,-0.037 0,-0.073 0.01,-0.11 0,-0.08 0.011,-0.161 0.017,-0.241 0.747,-9.81 8.688,-17.395 18.307,-17.9 0.75,-0.041 1.511,-0.037 2.279,0.012 3.53,0.226 6.779,1.382 9.523,3.212 0,0.001 0,0.002 0,0.004 1.569,1.067 3.363,1.74 5.223,1.981 0.105,0.014 0.209,0.026 0.316,0.037 11.695,1.345 23.767,-1.367 33.938,-8.137 2.693,-1.791 5.253,-3.868 7.637,-6.231 0.06,-0.058 0.12,-0.117 0.179,-0.176 0.059,-0.059 0.118,-0.119 0.176,-0.179 2.463,-2.525 4.099,-5.555 4.91,-8.752 1.628,-6.412 -0.067,-13.493 -5.085,-18.511 z" />
          <path
             style="fill:#ffffff"
             inkscape:connector-curvature="0"
             id="R_Arm_8_"
             d="m 1269.627,882.656 c 14.793,14.792 35.198,23.972 57.748,24.072 0.124,0.001 0.248,0.001 0.372,0.001 0.124,0 0.248,0 0.372,-0.001 10.249,-0.074 19.777,-3.183 27.729,-8.473 13.586,-9.037 22.572,-24.441 22.698,-41.952 10e-4,-0.124 10e-4,-0.248 10e-4,-0.372 0,-0.124 0,-0.248 -10e-4,-0.372 -0.094,-21.394 -8.364,-40.857 -21.844,-55.429 l -10e-4,-10e-4 c -10e-4,-10e-4 -10e-4,-10e-4 -10e-4,-0.002 -2.78,-3.003 -7.469,-3.185 -10.473,-0.407 -2.197,2.031 -2.885,5.082 -2.013,7.75 0.033,0.094 0.066,0.188 0.099,0.282 0.02,0.055 0.042,0.111 0.064,0.166 0,-10e-4 0,-0.002 -0.01,-0.003 1.802,5.208 2.782,10.801 2.782,16.623 0,1.051 -0.031,2.093 -0.094,3.127 0,0.037 0,0.073 -0.01,0.11 -0.01,0.08 -0.011,0.161 -0.017,0.241 -0.747,9.81 -8.688,17.395 -18.307,17.9 -0.75,0.041 -1.511,0.037 -2.279,-0.012 -3.53,-0.226 -6.779,-1.382 -9.523,-3.212 0,-10e-4 0,-0.002 0,-0.004 -1.569,-1.067 -3.363,-1.74 -5.223,-1.981 -0.105,-0.014 -0.209,-0.026 -0.316,-0.037 -11.695,-1.345 -23.767,1.367 -33.938,8.137 -2.693,1.791 -5.253,3.868 -7.637,6.231 -0.06,0.058 -0.12,0.117 -0.179,0.176 -0.059,0.059 -0.118,0.119 -0.176,0.179 -2.463,2.525 -4.1,5.555 -4.91,8.752 -1.629,6.412 0.066,13.493 5.084,18.511 z" />
        </g>
        <g
           id="g313"
           style="fill:#ffffff">
          <path
             style="fill:#ffffff"
             inkscape:connector-curvature="0"
             d="m 1465.414,883.689 c -10.038,0 -18.82,-4.548 -24.938,-12.86 v 34.034 c 0,3.607 -3.136,6.744 -7.058,6.744 -3.764,0 -6.9,-3.138 -6.9,-6.744 v -93.009 c 0,-3.607 3.136,-6.744 7.215,-6.744 3.607,0 6.743,3.138 6.743,6.744 v 5.02 c 5.49,-7.528 14.587,-12.705 24.938,-12.705 19.763,0 33.722,14.902 33.722,39.683 0,24.624 -13.96,39.837 -33.722,39.837 z m -3.922,-67.129 c -8.469,0 -17.252,5.02 -21.017,11.138 v 32.309 c 3.765,6.118 12.548,11.292 21.017,11.292 14.274,0 22.9,-11.607 22.9,-27.447 0,-15.84 -8.626,-27.292 -22.9,-27.292 z"
             id="path315" />
          <path
             style="fill:#ffffff"
             inkscape:connector-curvature="0"
             d="m 1551.516,883.689 c -23.526,0 -38.113,-18.037 -38.113,-39.837 0,-21.801 14.587,-39.683 38.113,-39.683 23.684,0 38.27,17.882 38.27,39.683 0,21.801 -14.586,39.837 -38.27,39.837 z m 0,-67.129 c -15.056,0 -23.683,12.862 -23.683,27.292 0,14.587 8.626,27.447 23.683,27.447 15.215,0 23.684,-12.86 23.684,-27.447 0,-14.43 -8.469,-27.292 -23.684,-27.292 z"
             id="path317" />
          <path
             style="fill:#ffffff"
             inkscape:connector-curvature="0"
             d="m 1662.086,882.748 c -3.764,0 -6.9,-3.135 -6.9,-6.902 v -42.66 c 0,-12.548 -6.431,-16.626 -16.156,-16.626 -8.94,0 -16.938,5.334 -21.017,11.138 v 48.149 c 0,3.767 -3.136,6.902 -7.058,6.902 -3.764,0 -6.9,-3.135 -6.9,-6.902 v -63.992 c 0,-3.607 3.136,-6.744 7.215,-6.744 3.607,0 6.743,3.138 6.743,6.744 v 4.862 c 5.177,-6.115 15.215,-12.548 26.82,-12.548 15.999,0 24.311,8.314 24.311,24.312 v 47.366 c -10e-4,3.766 -3.137,6.901 -7.058,6.901 z"
             id="path319" />
          <path
             style="fill:#ffffff"
             inkscape:connector-curvature="0"
             d="m 1699.252,787.074 c 0,4.862 -3.92,8.941 -8.94,8.941 -4.862,0 -8.94,-4.079 -8.94,-8.941 0,-5.017 4.077,-9.096 8.94,-9.096 5.02,0 8.94,4.079 8.94,9.096 z m -8.939,95.674 c -3.764,0 -6.9,-3.135 -6.9,-6.902 v -63.992 c 0,-3.607 3.136,-6.744 7.215,-6.744 3.607,0 6.743,3.138 6.743,6.744 v 63.992 c 0,3.767 -3.137,6.902 -7.058,6.902 z"
             id="path321" />
          <path
             style="fill:#ffffff"
             inkscape:connector-curvature="0"
             d="m 1783.003,814.523 -25.409,61.638 c -1.725,3.921 -5.646,6.587 -10.038,6.587 h -0.313 c -4.235,0 -7.999,-2.666 -9.567,-6.587 l -25.565,-61.638 c -0.315,-0.786 -0.471,-1.727 -0.471,-2.511 0,-3.45 2.823,-6.902 7.058,-6.902 2.823,0 5.333,1.57 6.43,4.393 l 22.428,56.149 22.273,-56.149 c 1.097,-2.666 3.764,-4.393 6.43,-4.393 4.235,0 7.215,3.295 7.215,6.902 0,0.784 -0.156,1.725 -0.471,2.511 z"
             id="path323" />
          <path
             style="fill:#ffffff"
             inkscape:connector-curvature="0"
             d="m 1857.184,848.4 h -52.698 c 1.097,13.02 10.509,23.997 25.878,23.997 6.431,0 13.333,-2.197 18.822,-6.273 0.941,-0.472 2.039,-0.786 3.138,-0.786 2.509,0 5.646,2.197 5.646,5.649 0,8.469 -19.449,12.703 -29.017,12.703 -22.584,0 -39.054,-15.997 -39.054,-39.837 0,-21.958 15.841,-39.683 37.799,-39.683 18.351,0 30.898,11.449 35.29,28.39 0.628,2.509 1.411,5.803 1.411,8.784 0,3.763 -3.294,7.056 -7.215,7.056 z m -29.643,-32.936 c -15.056,0 -22.428,12.548 -23.055,23.056 h 46.426 c -0.315,-10.196 -7.216,-23.056 -23.371,-23.056 z"
             id="path325" />
          <path
             style="fill:#ffffff"
             inkscape:connector-curvature="0"
             d="m 1911.449,818.599 c -7.215,0.629 -14.274,3.764 -18.822,10.508 v 46.739 c 0,3.767 -3.138,6.902 -7.058,6.902 h -0.157 c -3.764,-0.157 -6.744,-3.135 -6.744,-6.902 v -63.992 c 0,-3.607 3.138,-6.744 7.215,-6.744 3.607,0 6.744,3.138 6.744,6.744 v 5.961 c 4.235,-5.803 11.136,-12.86 19.605,-12.86 3.607,0 6.274,2.666 6.274,6.273 0,4.079 -3.137,7.059 -7.057,7.371 z"
             id="path327" />
          <path
             style="fill:#ffffff"
             inkscape:connector-curvature="0"
             d="m 1957.871,883.689 c -10.351,0 -21.801,-2.98 -28.702,-9.879 -1.097,-0.941 -1.725,-2.197 -1.725,-3.764 0,-3.295 2.823,-5.803 6.117,-5.803 1.411,0 2.51,0.312 3.608,1.096 5.646,4.079 13.488,7.216 21.33,7.216 10.822,0 16.469,-4.862 16.469,-11.764 0,-16.781 -46.27,-5.803 -46.27,-34.349 0,-11.919 10.352,-22.273 28.86,-22.273 10.822,0 20.389,3.295 26.35,9.098 0.941,0.941 1.411,2.197 1.411,3.45 0,3.138 -2.667,5.491 -5.49,5.491 -1.254,0 -2.353,-0.315 -3.294,-1.098 -4.862,-3.452 -11.605,-5.803 -18.82,-5.803 -9.567,0 -15.528,4.548 -15.528,10.666 0,15.214 46.426,4.705 46.426,34.506 -10e-4,12.859 -10.666,23.21 -30.742,23.21 z"
             id="path329" />
          <path
             style="fill:#ffffff"
             inkscape:connector-curvature="0"
             d="m 2068.126,848.4 h -52.7 c 1.098,13.02 10.508,23.997 25.879,23.997 6.431,0 13.332,-2.197 18.822,-6.273 0.941,-0.472 2.038,-0.786 3.136,-0.786 2.51,0 5.646,2.197 5.646,5.649 0,8.469 -19.448,12.703 -29.016,12.703 -22.586,0 -39.054,-15.997 -39.054,-39.837 0,-21.958 15.841,-39.683 37.799,-39.683 18.35,0 30.898,11.449 35.29,28.39 0.626,2.509 1.411,5.803 1.411,8.784 0,3.763 -3.292,7.056 -7.213,7.056 z m -29.643,-32.936 c -15.058,0 -22.429,12.548 -23.056,23.056 h 46.426 c -0.314,-10.196 -7.216,-23.056 -23.37,-23.056 z"
             id="path331" />
          <path
             style="fill:#ffffff"
             inkscape:connector-curvature="0"
             d="m 2094.157,883.377 c -4.705,0 -8.626,-3.921 -8.626,-8.626 0,-4.705 3.921,-8.626 8.626,-8.626 4.705,0 8.626,3.921 8.626,8.626 0,4.705 -3.92,8.626 -8.626,8.626 z"
             id="path333" />
          <path
             style="fill:#ffffff"
             inkscape:connector-curvature="0"
             d="m 2173.99,882.748 c -3.137,0 -5.803,-2.666 -5.803,-5.803 v -44.7 c 0,-13.332 -6.744,-17.567 -16.94,-17.567 -9.254,0 -18.037,5.649 -22.428,11.764 v 50.503 c 0,3.138 -2.666,5.803 -5.959,5.803 -3.137,0 -5.803,-2.666 -5.803,-5.803 v -66.186 c 0,-2.98 2.666,-5.649 6.117,-5.649 2.98,0 5.646,2.668 5.646,5.649 v 6.273 c 5.333,-6.273 15.684,-12.862 26.978,-12.862 15.84,0 24.153,8 24.153,24.469 v 48.307 c 0,3.136 -2.668,5.802 -5.961,5.802 z"
             id="path335" />
          <path
             style="fill:#ffffff"
             inkscape:connector-curvature="0"
             d="m 2261.189,847.773 h -54.738 c 0.941,14.273 10.979,26.191 27.291,26.191 7.215,0 14.43,-2.351 20.389,-7.056 0.785,-0.472 1.726,-0.784 2.667,-0.784 2.038,0 4.705,1.882 4.705,4.862 0,8.155 -19.605,12.703 -28.86,12.703 -22.428,0 -38.583,-16.155 -38.583,-39.837 0,-21.958 15.684,-39.683 37.329,-39.683 18.82,0 31.211,11.921 35.132,29.331 0.471,2.351 1.098,5.174 1.098,7.843 10e-4,3.45 -2.822,6.43 -6.43,6.43 z m -29.957,-33.879 c -16.155,0 -24.153,13.646 -24.781,25.253 h 49.719 c -0.157,-11.292 -7.685,-25.253 -24.938,-25.253 z"
             id="path337" />
          <path
             style="fill:#ffffff"
             inkscape:connector-curvature="0"
             d="m 2306.197,883.689 c -11.135,0 -16.782,-6.43 -16.782,-17.722 v -49.562 h -8.469 c -2.823,0 -5.018,-2.197 -5.018,-5.334 0,-2.823 2.195,-5.02 5.018,-5.02 h 8.469 v -15.997 c 0,-2.98 2.667,-5.646 6.118,-5.646 2.979,0 5.646,2.666 5.646,5.646 v 15.997 h 11.292 c 2.823,0 5.02,2.197 5.02,5.334 0,2.823 -2.197,5.02 -5.02,5.02 h -11.292 v 47.051 c 0,5.649 2.51,9.725 7.686,9.725 2.039,0 4.392,-1.098 6.274,-1.098 2.666,0 5.018,2.197 5.018,4.862 0,5.019 -7.216,6.744 -13.96,6.744 z"
             id="path339" />
        </g>
      </g>
    </g>
  </g>
</svg>
