<?xml version="1.0" encoding="UTF-8" standalone="no"?>
<svg
   xmlns:dc="http://purl.org/dc/elements/1.1/"
   xmlns:cc="http://creativecommons.org/ns#"
   xmlns:rdf="http://www.w3.org/1999/02/22-rdf-syntax-ns#"
   xmlns:svg="http://www.w3.org/2000/svg"
   xmlns="http://www.w3.org/2000/svg"
   version="1.1"
   id="svg3593"
   viewBox="0 0 477.24999 155.40801"
   height="43.859592mm"
   width="134.69055mm">
  <defs
     id="defs3595" />
  <metadata
     id="metadata3598">
    <rdf:RDF>
      <cc:Work
         rdf:about="">
        <dc:format>image/svg+xml</dc:format>
        <dc:type
           rdf:resource="http://purl.org/dc/dcmitype/StillImage" />
        <dc:title></dc:title>
      </cc:Work>
    </rdf:RDF>
  </metadata>
  <g
     transform="translate(-99.600014,-432.15869)"
     id="layer1">
    <g
       id="Logo_6_"
       transform="translate(80.370942,-490.68339)">
      <g
         id="g147">
        <path
           id="path149"
           d="m 171.797,1020.821 c -5.412,0 -10.168,-2.542 -13.367,-6.97 l 0,18.615 c 0,1.558 -1.393,2.952 -3.116,2.952 -1.64,0 -3.034,-1.394 -3.034,-2.952 l 0,-49.777 c 0,-1.558 1.394,-2.952 3.198,-2.952 1.559,0 2.952,1.394 2.952,2.952 l 0,3.444 c 2.87,-4.018 7.791,-6.888 13.367,-6.888 10.415,0 17.631,7.872 17.631,20.747 0,12.792 -7.216,20.829 -17.631,20.829 z m -1.558,-36.082 c -4.838,0 -9.677,2.87 -11.809,6.314 l 0,17.877 c 2.132,3.444 6.971,6.396 11.809,6.396 7.955,0 12.711,-6.56 12.711,-15.335 0,-8.775 -4.756,-15.252 -12.711,-15.252 z"
           style="fill:#8849bf" />
        <path
           id="path151"
           d="m 216.489,1020.821 c -12.055,0 -19.599,-9.348 -19.599,-20.829 0,-11.481 7.544,-20.747 19.599,-20.747 12.055,0 19.599,9.266 19.599,20.747 0,11.481 -7.545,20.829 -19.599,20.829 z m 0,-36.082 c -8.446,0 -13.202,7.217 -13.202,15.253 0,8.119 4.756,15.335 13.202,15.335 8.447,0 13.121,-7.216 13.121,-15.335 0,-8.037 -4.674,-15.253 -13.121,-15.253 z"
           style="fill:#8849bf" />
        <path
           id="path153"
           d="m 273.318,1020.328 c -1.64,0 -3.034,-1.394 -3.034,-3.034 l 0,-23.371 c 0,-6.97 -3.526,-9.185 -8.857,-9.185 -4.838,0 -9.431,2.952 -11.727,6.151 l 0,26.405 c 0,1.64 -1.393,3.034 -3.116,3.034 -1.64,0 -3.034,-1.394 -3.034,-3.034 l 0,-34.606 c 0,-1.558 1.394,-2.952 3.198,-2.952 1.559,0 2.952,1.394 2.952,2.952 l 0,3.28 c 2.788,-3.28 8.2,-6.724 14.105,-6.724 8.282,0 12.629,4.182 12.629,12.793 l 0,25.257 c 0,1.641 -1.394,3.034 -3.116,3.034 z"
           style="fill:#8849bf" />
        <path
           id="path155"
           d="m 319.322,983.837 -18.369,44.036 c -2.378,5.659 -6.56,8.037 -11.645,8.037 -2.132,0 -4.838,-0.164 -4.838,-2.788 0,-1.64 1.312,-2.788 2.706,-2.788 0.738,0 1.394,0.082 2.05,0.082 2.46,0.082 4.346,-0.902 5.822,-4.182 l 2.624,-5.986 -15.089,-36.41 c -0.164,-0.328 -0.246,-0.738 -0.246,-1.066 0,-1.558 1.312,-3.034 3.116,-3.034 1.23,0 2.378,0.656 2.87,1.886 l 12.629,31.08 12.547,-31.08 c 0.492,-1.148 1.64,-1.886 2.87,-1.886 1.805,0 3.199,1.394 3.199,3.034 0,0.327 -0.082,0.737 -0.246,1.065 z"
           style="fill:#8849bf" />
        <path
           id="path157"
           d="m 323.914,1020.656 c -2.461,0 -4.51,-2.05 -4.51,-4.51 0,-2.46 2.05,-4.51 4.51,-4.51 2.46,0 4.51,2.05 4.51,4.51 0,2.461 -2.05,4.51 -4.51,4.51 z"
           style="fill:#8849bf" />
        <path
           id="path159"
           d="m 358.028,972.11 c -1.23,0 -2.297,-0.82 -4.019,-0.82 -3.362,0 -5.412,2.296 -5.412,6.478 l 0,2.46 4.756,0 c 2.05,0 3.772,1.722 3.772,3.936 0,2.05 -1.722,3.772 -3.772,3.772 l -4.756,0 0,28.045 c 0,2.378 -1.968,4.346 -4.51,4.346 -2.378,0 -4.346,-1.968 -4.346,-4.346 l 0,-28.045 -3.28,0 c -2.05,0 -3.772,-1.722 -3.772,-3.936 0,-2.05 1.722,-3.772 3.772,-3.772 l 3.28,0 0,-2.46 c 0,-8.365 5.002,-13.449 12.629,-13.449 4.51,0 8.775,1.64 8.775,4.428 -10e-4,2.133 -1.641,3.363 -3.117,3.363 z"
           style="fill:#8849bf" />
        <path
           id="path161"
           d="m 417.398,1020.328 c -2.378,0 -4.346,-1.968 -4.346,-4.346 l 0,-21.895 c 0,-4.182 -1.804,-7.052 -6.396,-7.052 -3.854,0 -7.38,2.706 -9.102,5.166 l 0,23.781 c 0,2.378 -1.968,4.346 -4.428,4.346 -2.461,0 -4.346,-1.968 -4.346,-4.346 l 0,-21.895 c 0,-4.182 -1.886,-7.052 -6.479,-7.052 -3.772,0 -7.299,2.706 -9.02,5.248 l 0,23.699 c 0,2.378 -1.968,4.346 -4.428,4.346 -2.46,0 -4.346,-1.968 -4.346,-4.346 l 0,-31.982 c 0,-2.296 1.886,-4.264 4.51,-4.264 2.297,0 4.264,1.968 4.264,4.264 l 0,1.64 c 1.64,-2.46 6.888,-6.396 12.875,-6.396 5.904,0 9.513,2.952 10.825,7.298 2.296,-3.608 7.544,-7.298 13.531,-7.298 7.216,0 11.398,3.936 11.398,11.973 l 0,24.765 c -0.002,2.378 -1.97,4.346 -4.512,4.346 z"
           style="fill:#8849bf" />
      </g>
      <g
         id="g163">
        <g
           id="g165">
          <circle
             id="circle167"
             r="2.96"
             cy="1000.037"
             cx="94.412003"
             style="fill:#8849bf" />
          <path
             id="path169"
             d="m 94.412,967.207 c -18.132,0 -32.83,14.699 -32.83,32.83 0,18.132 14.699,32.83 32.83,32.83 18.131,0 32.83,-14.699 32.83,-32.83 10e-4,-18.131 -14.698,-32.83 -32.83,-32.83 z m 0,45.37 c -6.925,0 -12.54,-5.614 -12.54,-12.54 0,-6.926 5.614,-12.54 12.54,-12.54 6.925,0 12.54,5.614 12.54,12.54 0,6.926 -5.614,12.54 -12.54,12.54 z m 18.305,-15.55 c -0.976,0.262 -1.98,-0.318 -2.242,-1.294 -1.188,-4.436 -4.062,-7.97 -7.748,-10.098 -0.875,-0.505 -1.175,-1.625 -0.67,-2.5 0.498,-0.862 1.59,-1.166 2.459,-0.693 0.014,0.007 0.027,0.015 0.041,0.023 0.014,0.008 0.027,0.016 0.041,0.024 4.465,2.591 7.947,6.877 9.4,12.251 0.005,0.015 0.009,0.03 0.013,0.045 0.004,0.016 0.008,0.031 0.012,0.046 0.232,0.962 -0.344,1.939 -1.306,2.196 z m 7.072,-1.894 c -0.977,0.261 -1.98,-0.318 -2.242,-1.294 -1.712,-6.389 -5.851,-11.479 -11.159,-14.543 -0.875,-0.505 -1.175,-1.625 -0.67,-2.5 0.505,-0.875 1.625,-1.175 2.5,-0.67 6.12,3.533 10.892,9.401 12.865,16.766 0.262,0.975 -0.318,1.979 -1.294,2.241 z"
             style="fill:#8849bf" />
        </g>
      </g>
    </g>
  </g>
</svg>
